<?xml version="1.0" standalone="no"?>
<!DOCTYPE svg PUBLIC "-//W3C//DTD SVG 20010904//EN"
 "http://www.w3.org/TR/2001/REC-SVG-20010904/DTD/svg10.dtd">
<svg version="1.0" xmlns="http://www.w3.org/2000/svg"
 width="579.000000pt" height="579.000000pt" viewBox="0 0 579.000000 579.000000"
 preserveAspectRatio="xMidYMid meet">
<metadata>
Created by potrace 1.14, written by Peter Selinger 2001-2017
</metadata>
<g transform="translate(0.000000,579.000000) scale(0.100000,-0.100000)"
fill="#000000" stroke="none">
<path d="M1895 5662 c-72 -14 -102 -28 -146 -69 -27 -25 -49 -51 -49 -57 0 -6
-7 -23 -15 -39 -13 -26 -14 -85 -1 -117 3 -8 7 -24 9 -35 1 -11 98 -114 215
-229 117 -115 212 -214 212 -220 0 -6 -92 -103 -205 -216 l-205 -205 -202 202
c-217 215 -261 247 -344 246 -82 -1 -176 -63 -204 -135 -7 -18 -16 -37 -20
-43 -8 -13 -5 -92 4 -125 5 -14 107 -124 227 -245 l219 -220 -215 -215 -215
-215 -207 206 c-115 113 -226 214 -248 226 -100 51 -265 -18 -297 -124 -7 -24
-15 -43 -18 -43 -4 0 -3 -32 2 -72 l7 -72 221 -221 221 -221 -136 -133 c-75
-73 -146 -149 -160 -169 -47 -72 -63 -194 -37 -279 6 -17 8 -33 6 -36 -3 -2 2
-10 11 -17 8 -7 15 -21 15 -31 0 -10 6 -22 12 -26 7 -5 74 -70 148 -146 l134
-138 -184 -184 c-102 -102 -191 -185 -198 -185 -7 0 -11 -4 -8 -9 3 -4 -3 -16
-14 -26 -24 -22 -40 -75 -40 -133 0 -155 191 -271 325 -198 22 12 129 112 237
222 l197 199 211 -210 210 -210 -190 -190 c-105 -105 -190 -195 -190 -201 0
-7 -7 -17 -15 -24 -8 -7 -13 -16 -10 -20 3 -5 0 -10 -7 -12 -13 -5 -17 -22
-19 -90 -3 -59 33 -151 66 -168 13 -7 22 -16 20 -20 -8 -13 113 -49 152 -44
64 8 70 9 87 23 9 7 16 10 16 5 0 -5 95 86 210 201 l210 210 207 -208 208
-207 -203 -203 c-111 -111 -202 -208 -202 -215 0 -6 -5 -12 -12 -12 -6 0 -9
-3 -6 -6 4 -3 0 -20 -7 -37 -12 -30 -13 -93 -3 -127 24 -74 77 -124 165 -154
39 -13 74 -22 77 -18 3 3 29 13 58 24 45 15 79 45 250 215 109 109 203 198
208 198 5 0 67 -57 137 -126 137 -136 184 -165 280 -179 65 -8 144 3 204 29
30 13 91 67 189 165 l145 146 221 -221 c121 -121 227 -221 235 -222 8 -2 20
-6 27 -11 21 -12 131 -9 147 4 8 7 15 9 15 4 0 -5 5 -1 11 9 5 9 16 17 23 17
16 0 76 65 76 83 0 7 4 17 10 23 14 14 20 117 8 132 -6 6 -7 12 -3 12 4 0 0
11 -9 25 -9 14 -13 25 -9 25 4 0 -91 99 -212 220 l-220 220 215 215 215 215
225 -224 c240 -239 248 -245 340 -240 62 3 170 66 170 100 0 6 7 15 16 18 9 4
14 9 11 13 -4 3 -3 11 3 17 5 7 12 33 15 60 13 90 -11 125 -248 363 l-212 213
210 210 210 211 220 -223 c121 -122 222 -223 225 -224 3 0 14 -5 25 -10 39
-18 139 -9 181 16 49 29 84 60 84 75 0 6 9 17 19 25 11 7 18 16 17 19 -2 3 -1
27 3 53 6 36 3 61 -11 100 -16 47 -45 79 -233 268 l-215 215 166 165 c149 148
177 181 184 215 1 6 6 15 11 22 26 30 25 233 0 241 -6 2 -8 9 -5 16 3 7 -2 19
-11 26 -8 7 -15 19 -15 27 0 8 -59 75 -132 149 -72 74 -130 136 -127 138 2 3
81 83 175 178 184 185 194 201 194 298 -1 25 -9 62 -18 82 -22 46 -78 108 -97
108 -8 0 -15 4 -15 9 0 9 -17 14 -76 25 -12 3 -39 0 -60 -5 -22 -6 -46 -11
-54 -11 -8 -1 -97 -82 -198 -182 l-183 -180 -207 207 -207 208 173 171 c94 94
172 174 172 179 0 5 8 23 18 41 24 42 21 121 -6 174 -24 46 -80 106 -93 98 -5
-3 -9 -1 -9 5 0 5 -17 15 -37 22 -68 22 -136 12 -190 -27 -17 -13 -35 -24 -40
-24 -4 0 -78 -70 -163 -155 l-155 -155 -210 210 -210 211 170 167 c93 92 175
177 181 189 15 26 34 120 31 148 -1 11 -9 31 -17 45 -8 14 -15 32 -16 40 -4
22 -74 78 -122 96 -58 23 -150 14 -193 -18 -18 -12 -102 -93 -188 -178 l-156
-155 155 150 155 150 -155 -157 c-85 -87 -156 -158 -158 -158 -2 0 -70 64
-150 143 -134 130 -153 144 -212 164 -62 22 -174 34 -195 21 -6 -3 -20 -4 -32
-3 -12 1 -24 -4 -27 -12 -3 -7 -12 -13 -20 -13 -30 0 -67 -31 -220 -188 l-160
-163 -210 210 c-116 116 -224 215 -241 222 -51 19 -79 25 -100 21z m1181 -752
c19 -7 34 -16 34 -21 0 -6 4 -8 9 -5 4 3 21 -6 37 -19 16 -14 34 -25 39 -25 6
0 379 -370 830 -821 451 -452 814 -818 808 -815 -22 12 -14 -5 12 -30 14 -13
25 -29 25 -37 0 -8 7 -20 15 -27 8 -7 13 -16 10 -20 -3 -5 -1 -11 4 -14 4 -3
9 -20 9 -38 0 -18 1 -35 2 -38 16 -38 -1 -121 -43 -205 -27 -55 -1729 -1757
-1777 -1778 -70 -30 -101 -40 -106 -34 -3 3 -3 168 1 366 l8 361 38 -35 c21
-18 50 -40 66 -48 56 -29 157 -57 208 -57 55 0 176 37 230 70 31 19 101 89
121 121 5 8 31 25 57 38 145 73 235 209 238 360 2 55 2 57 64 113 68 62 98
119 116 215 13 67 -2 165 -32 226 l-21 39 28 62 c51 114 31 290 -43 368 -24
25 -25 33 -27 140 -1 95 -5 121 -25 166 -33 73 -133 165 -204 188 l-53 16 10
54 c20 111 -29 216 -129 281 -28 18 -67 46 -89 63 -58 46 -246 137 -311 150
-59 12 -186 10 -217 -4 -17 -8 -18 12 -18 342 l0 351 21 -4 c12 -3 37 -9 55
-15z m-647 -622 c11 -18 27 -42 34 -53 8 -11 47 -73 88 -137 l73 -118 93 0 93
0 0 -244 0 -243 -62 -6 c-136 -14 -263 -83 -369 -204 -110 -123 -154 -281
-131 -465 30 -245 232 -452 476 -488 l86 -13 0 -250 0 -250 -75 7 c-41 4 -75
3 -75 -2 0 -5 -13 -28 -28 -53 -16 -24 -60 -97 -97 -162 -38 -65 -72 -120 -76
-123 -10 -6 -144 39 -224 76 -33 15 -71 31 -84 35 -21 6 -23 11 -17 49 6 40
35 195 56 304 13 64 7 76 -71 141 -30 25 -76 71 -104 103 -55 64 -62 66 -145
42 -62 -17 -133 -35 -233 -58 -37 -8 -72 -18 -77 -21 -6 -4 -17 11 -26 32 -8
21 -24 56 -34 79 -11 23 -20 44 -20 47 0 4 -11 30 -24 59 -46 104 -46 105 -28
121 9 8 73 52 142 97 69 45 137 91 153 102 l27 21 -1 151 c-1 83 -4 163 -8
178 -4 18 -22 38 -54 58 -26 16 -49 30 -52 30 -2 0 -54 31 -117 70 -97 60
-113 73 -111 94 1 23 62 183 103 272 l19 41 138 -27 c76 -15 167 -35 203 -44
45 -11 66 -12 69 -4 4 12 -1 6 135 145 l98 101 -16 74 c-8 40 -26 109 -40 153
-13 44 -26 101 -30 127 l-7 47 74 35 c41 20 77 36 80 36 4 0 32 12 64 27 55
26 90 40 105 42 3 1 15 -14 27 -31z m821 -155 c74 -25 150 -61 150 -71 0 -6
-17 -17 -38 -25 -43 -17 -108 -84 -118 -121 -10 -43 -1 -61 33 -64 25 -3 35 3
53 28 13 18 41 45 63 61 33 24 50 29 97 29 48 0 64 -5 99 -31 68 -49 96 -132
70 -207 -9 -26 -18 -32 -62 -42 -123 -26 -235 -120 -272 -229 -26 -76 -30
-144 -10 -164 39 -40 79 -12 88 62 12 100 66 171 167 219 73 34 137 34 210 1
68 -32 104 -68 141 -141 33 -66 37 -116 13 -189 l-17 -50 36 -37 c70 -74 102
-181 78 -268 -24 -90 -119 -187 -195 -198 -106 -17 -106 -16 -112 -43 -4 -14
-2 -33 3 -42 24 -38 154 -19 233 34 l50 33 15 -51 c19 -65 19 -100 -1 -168
-16 -54 -61 -107 -141 -166 -30 -22 -30 -25 -30 -100 1 -94 -14 -143 -61 -203
-52 -65 -70 -79 -138 -110 -43 -20 -67 -38 -83 -63 -29 -47 -77 -88 -137 -118
-40 -20 -64 -24 -134 -24 -75 1 -91 4 -135 29 -68 39 -112 82 -143 141 l-27
50 -3 812 -2 811 32 35 c20 21 51 40 78 48 25 7 51 17 58 22 17 13 15 43 -5
62 -20 21 -83 16 -133 -8 l-32 -17 7 212 c4 126 12 220 19 231 6 11 29 28 51
38 45 21 105 19 185 -8z"/>
<path d="M3733 3408 c-6 -7 -13 -35 -17 -62 -7 -58 -49 -138 -91 -173 -16 -15
-54 -37 -84 -51 -88 -40 -193 -22 -276 48 -41 35 -77 34 -96 -1 -24 -45 71
-126 178 -150 50 -12 52 -14 64 -58 17 -60 106 -151 165 -169 48 -14 113 -16
132 -3 8 5 12 21 10 37 -3 29 -14 36 -79 48 -37 8 -90 46 -116 85 -13 19 -23
37 -23 41 0 4 19 12 43 19 109 33 189 100 234 198 30 64 42 165 23 188 -15 18
-54 20 -67 3z"/>
<path d="M3083 2719 c-33 -34 2 -89 57 -89 121 0 250 -130 250 -251 0 -42 -3
-48 -28 -58 -42 -17 -131 -109 -158 -162 -24 -49 -47 -160 -37 -185 14 -38 80
-39 88 0 19 96 31 131 54 166 46 69 134 120 207 120 38 0 64 22 64 54 0 31
-18 46 -56 46 -30 0 -31 1 -37 53 -11 112 -102 233 -212 283 -64 29 -174 42
-192 23z"/>
<path d="M435 2248 l-180 -183 183 180 c100 99 182 181 182 182 0 8 -18 -10
-185 -179z"/>
</g>
</svg>
